Coordinates
version=1
nRows=27
nColumns=38
inDegrees=no

Units are S.I. units (second, meters, Newtons, ...)
If the header above contains a line with 'inDegrees', this indicates whether rotational values are in degrees (yes) or radians (no).

endheader
time	pelvis_tilt	pelvis_list	pelvis_rotation	pelvis_tx	pelvis_ty	pelvis_tz	hip_flexion_r	hip_adduction_r	hip_rotation_r	knee_angle_r	ankle_angle_r	subtalar_angle_r	mtp_angle_r	hip_flexion_l	hip_adduction_l	hip_rotation_l	knee_angle_l	ankle_angle_l	subtalar_angle_l	mtp_angle_l	lumbar_extension	lumbar_bending	lumbar_rotation	arm_flex_r	arm_add_r	arm_rot_r	elbow_flex_r	pro_sup_r	wrist_flex_r	wrist_dev_r	arm_flex_l	arm_add_l	arm_rot_l	elbow_flex_l	pro_sup_l	wrist_flex_l	wrist_dev_l
9.81	2.85427	1.36144	-1.3009	0.718365	2.06299	0.949547	-0.268828	0.0336212	-0.194868	0.109872	-0.0315259	0	0	-0.301053	-0.0356681	-0.216773	0.0973354	0.0413039	0	0	-0.260434	0.0195587	0.0607737	0.712918	-0.289578	0.43239	1.1076	1.5708	0	0	0.618871	-0.316366	0.164359	1.24214	0.781415	0	0
9.82	2.85312	1.35747	-1.30056	0.717833	2.0618	0.949966	-0.268508	0.0334974	-0.195316	0.114788	-0.0323819	0	0	-0.299267	-0.0373737	-0.222666	0.105836	0.0437994	0	0	-0.264743	0.0207095	0.0618555	0.731642	-0.279424	0.447881	1.05965	1.5708	0	0	0.63667	-0.307633	0.181912	1.20816	0.818092	0	0
9.83	2.81178	1.31731	-1.27714	0.71961	2.05824	0.95401	-0.301871	0.0535775	-0.166685	0.11296	-0.0514189	0	0	-0.337213	-0.0563371	-0.253405	0.107312	0.0422218	0	0	-0.311789	0.0372501	0.0835261	0.762694	-0.273773	0.46946	1.01772	1.5708	0	0	0.664052	-0.297241	0.19156	1.17554	0.791728	0	0
9.84	2.81397	1.31388	-1.27977	0.718915	2.05711	0.954427	-0.301502	0.0525195	-0.168466	0.117575	-0.0525434	0	0	-0.336939	-0.0565769	-0.255632	0.112057	0.0420676	0	0	-0.315664	0.0375418	0.0840907	0.776055	-0.265222	0.481938	0.980687	1.5708	0	0	0.678393	-0.287847	0.198002	1.14648	0.796097	0	0
9.85	2.81649	1.31142	-1.28291	0.718266	2.0559	0.954783	-0.299838	0.0510226	-0.16935	0.122429	-0.0532327	0	0	-0.335264	-0.0565829	-0.257863	0.117375	0.0418982	0	0	-0.318892	0.0371632	0.0848601	0.786225	-0.257444	0.487842	0.953303	1.5708	0	0	0.691247	-0.279079	0.203453	1.12209	0.799725	0	0
9.86	2.86059	1.34597	-1.31155	0.715264	2.05701	0.951449	-0.261629	0.027386	-0.201046	0.137833	-0.0341742	0	0	-0.294186	-0.0378142	-0.234002	0.127547	0.0444441	0	0	-0.27855	0.0208637	0.0657387	0.779668	-0.246594	0.481144	0.931107	1.5708	0	0	0.69156	-0.271124	0.208737	1.09756	0.80474	0	0
9.87	2.81741	1.30882	-1.28605	0.717343	2.05289	0.955307	-0.290994	0.0480675	-0.171019	0.135954	-0.0534331	0	0	-0.326003	-0.0583418	-0.266276	0.133614	0.0442013	0	0	-0.323148	0.0353381	0.087198	0.800338	-0.242853	0.4814	0.919507	1.5708	0	0	0.712994	-0.263117	0.215372	1.08126	0.813652	0	0
9.88	2.85842	1.34425	-1.31064	0.714169	2.05391	0.952019	-0.253519	0.0252799	-0.202468	0.148086	-0.0362955	0	0	-0.284447	-0.0394387	-0.239606	0.141609	0.0449608	0	0	-0.281046	0.0195073	0.0667425	0.789192	-0.233555	0.466927	0.908755	1.5708	0	0	0.707676	-0.256494	0.215509	1.06893	0.821393	0	0
9.89	2.85883	1.3446	-1.31155	0.713522	2.0525	0.952286	-0.248578	0.0234884	-0.204408	0.153173	-0.0367623	0	0	-0.279683	-0.0389185	-0.240798	0.14616	0.0434828	0	0	-0.280112	0.0181269	0.0664229	0.79137	-0.228351	0.459786	0.901384	1.5708	0	0	0.711803	-0.251121	0.213821	1.06303	0.827994	0	0
9.9	2.86085	1.34416	-1.31415	0.71283	2.05113	0.952622	-0.244634	0.0214014	-0.206046	0.158059	-0.0375763	0	0	-0.276381	-0.0380484	-0.24255	0.149863	0.0416066	0	0	-0.279966	0.0166399	0.0661609	0.7931	-0.224417	0.453735	0.89501	1.5708	0	0	0.715272	-0.246713	0.208986	1.05923	0.835511	0	0
9.91	2.8648	1.34329	-1.31902	0.712049	2.0498	0.953019	-0.241147	0.0185549	-0.207702	0.163194	-0.0384381	0	0	-0.274511	-0.0363576	-0.244458	0.152039	0.0389221	0	0	-0.280212	0.0149515	0.0662074	0.794737	-0.221703	0.449776	0.888395	1.5708	0	0	0.718341	-0.242894	0.202862	1.05513	0.843257	0	0
9.92	2.86919	1.34252	-1.32429	0.711335	2.04833	0.953426	-0.237622	0.0158177	-0.208803	0.1679	-0.039699	0	0	-0.27263	-0.034672	-0.245682	0.153728	0.0359852	0	0	-0.280493	0.0129342	0.0664101	0.796628	-0.219572	0.447934	0.880456	1.5708	0	0	0.721338	-0.239598	0.198807	1.05003	0.849982	0	0
9.93	2.87209	1.34174	-1.32818	0.710659	2.04669	0.953781	-0.233609	0.0134188	-0.209562	0.172987	-0.0408687	0	0	-0.270481	-0.0333551	-0.246839	0.15552	0.0332466	0	0	-0.28104	0.0111228	0.0667566	0.799336	-0.217838	0.448621	0.87091	1.5708	0	0	0.724297	-0.236802	0.197042	1.04421	0.854983	0	0
9.94	2.87428	1.34083	-1.33137	0.710018	2.04493	0.954122	-0.229019	0.0110605	-0.210426	0.179046	-0.0416945	0	0	-0.268451	-0.0322264	-0.24793	0.157043	0.0304383	0	0	-0.281914	0.00936366	0.0671081	0.803066	-0.216226	0.45157	0.859254	1.5708	0	0	0.727505	-0.23438	0.196354	1.03736	0.858309	0	0
9.95	2.87588	1.33998	-1.33425	0.709435	2.043	0.954459	-0.223455	0.008781	-0.211346	0.186285	-0.0424934	0	0	-0.266244	-0.0312253	-0.249142	0.158485	0.0274974	0	0	-0.282949	0.00744601	0.0675828	0.808381	-0.214585	0.457207	0.845102	1.5708	0	0	0.73119	-0.232692	0.197337	1.02985	0.860126	0	0
9.96	2.87672	1.33873	-1.33636	0.70887	2.04092	0.954835	-0.217989	0.00690103	-0.211977	0.19349	-0.0437038	0	0	-0.263907	-0.030813	-0.250443	0.160637	0.0249006	0	0	-0.284663	0.00566596	0.0680603	0.81559	-0.213253	0.465403	0.829233	1.5708	0	0	0.735054	-0.231664	0.199748	1.02295	0.859945	0	0
9.97	2.85866	1.34927	-1.32801	0.707831	2.0379	0.954672	-0.204004	0.00502895	-0.213577	0.184848	-0.0542083	0	0	-0.245759	-0.0285319	-0.257124	0.166153	0.021846	0	0	-0.272216	0.00954947	0.0829291	0.822028	-0.219267	0.475699	0.811874	1.5708	0	0	0.751034	-0.157078	0.0714248	0.94226	0.875099	0	0
9.98	2.8672	1.3419	-1.33191	0.707155	2.03701	0.955386	-0.201635	0.00349002	-0.208209	0.205214	-0.048642	0	0	-0.253232	-0.0294496	-0.255727	0.164505	0.0196044	0	0	-0.277666	0.0076483	0.0785659	0.827988	-0.217453	0.482736	0.796658	1.5708	0	0	0.754716	-0.157669	0.0752254	0.936764	0.8762	0	0
9.99	2.82767	1.30584	-1.31099	0.709102	2.03234	0.959164	-0.230436	0.0239903	-0.175074	0.200703	-0.0689762	0	0	-0.287468	-0.0474811	-0.285525	0.163401	0.0157441	0	0	-0.320733	0.0194297	0.0999142	0.852975	-0.219622	0.501813	0.779948	1.5708	0	0	0.771358	-0.156344	0.0818308	0.930688	0.904079	0	0
10	2.87243	1.34041	-1.34014	0.705735	2.0324	0.955881	-0.187959	-0.00227245	-0.208586	0.221791	-0.0500829	0	0	-0.247403	-0.0267802	-0.258476	0.168122	0.0144892	0	0	-0.281403	0.00317548	0.0805647	0.849626	-0.216351	0.504611	0.763788	1.5708	0	0	0.765844	-0.155013	0.0811379	0.923438	0.882462	0	0
10.01	2.86627	1.34685	-1.3418	0.704779	2.02882	0.955666	-0.176688	-0.00605087	-0.216215	0.217444	-0.0574389	0	0	-0.23299	-0.0238158	-0.263381	0.174488	0.0121672	0	0	-0.278696	0.00158803	0.0868904	0.863868	-0.217219	0.517824	0.747553	1.5708	0	0	0.77205	-0.150141	0.0787175	0.916152	0.885426	0	0
10.02	2.87454	1.34053	-1.34534	0.704019	2.02765	0.956237	-0.172216	-0.00805375	-0.211366	0.23917	-0.0514628	0	0	-0.238814	-0.0242546	-0.261178	0.173178	0.0103533	0	0	-0.28395	-0.000855378	0.0824061	0.871794	-0.215781	0.52714	0.732961	1.5708	0	0	0.778383	-0.149547	0.0848032	0.909608	0.887637	0	0
10.03	2.87051	1.34716	-1.34946	0.703166	2.02381	0.955881	-0.159995	-0.0121266	-0.216819	0.235233	-0.0583117	0	0	-0.224349	-0.0205625	-0.265571	0.178819	0.00779954	0	0	-0.282036	-0.00352817	0.0888683	0.886724	-0.2167	0.54277	0.717418	1.5708	0	0	0.787108	-0.144746	0.084062	0.901221	0.892182	0	0
10.04	2.87193	1.34779	-1.35242	0.702412	2.02112	0.955831	-0.150534	-0.0150324	-0.216763	0.244716	-0.0586796	0	0	-0.218015	-0.0195826	-0.268368	0.183441	0.00684224	0	0	-0.283976	-0.00623513	0.0895799	0.898086	-0.216189	0.55519	0.703513	1.5708	0	0	0.796155	-0.141783	0.0854754	0.893159	0.897071	0	0
10.05	2.87229	1.34648	-1.35491	0.701672	2.0183	0.955967	-0.144096	-0.0167075	-0.213627	0.251505	-0.0612832	0	0	-0.213448	-0.0193079	-0.273768	0.188313	0.00593304	0	0	-0.287988	-0.00834005	0.0907282	0.91107	-0.21585	0.572192	0.687857	1.5708	0	0	0.806212	-0.137683	0.0866775	0.88318	0.944157	0	0
10.06	2.82925	1.31519	-1.33153	0.703547	2.01327	0.959341	-0.166981	0.00354169	-0.182438	0.247678	-0.0804952	0	0	-0.241742	-0.0367411	-0.303872	0.188201	0.00257413	0	0	-0.327168	0.00120924	0.111941	0.934244	-0.21626	0.588856	0.674158	1.5708	0	0	0.825438	-0.133558	0.0860177	0.873319	0.916143	0	0
10.07	2.87945	1.35018	-1.36567	0.69971	2.01269	0.955818	-0.121669	-0.0253497	-0.215559	0.272268	-0.0612621	0	0	-0.199737	-0.0143058	-0.276455	0.193738	0.00113614	0	0	-0.289561	-0.0150302	0.0913701	0.931533	-0.213081	0.593503	0.660671	1.5708	0	0	0.822818	-0.129412	0.0852763	0.864447	0.919561	0	0
